<svg xmlns="http://www.w3.org/2000/svg" style="display: none;"><symbol id="icon-whatsapp" viewBox="0 0 512 512"><title>Whatsapp</title><g class="nc-icon-wrapper"><path d="M260.062 32C138.605 32 40.134 129.701 40.134 250.232c0 41.23 11.532 79.79 31.559 112.687L32 480l121.764-38.682c31.508 17.285 67.745 27.146 106.298 27.146C381.535 468.464 480 370.749 480 250.232 480 129.701 381.535 32 260.062 32zm109.362 301.11c-5.174 12.827-28.574 24.533-38.899 25.072-10.314.547-10.608 7.994-66.84-16.434-56.225-24.434-90.052-83.844-92.719-87.67-2.669-3.812-21.78-31.047-20.749-58.455 1.038-27.413 16.047-40.346 21.404-45.725 5.351-5.387 11.486-6.352 15.232-6.413 4.428-.072 7.296-.132 10.573-.011 3.274.124 8.192-.685 12.45 10.639 4.256 11.323 14.443 39.153 15.746 41.989 1.302 2.839 2.108 6.126.102 9.771-2.012 3.653-3.042 5.935-5.961 9.083-2.935 3.148-6.174 7.042-8.792 9.449-2.92 2.665-5.97 5.572-2.9 11.269 3.068 5.693 13.653 24.356 29.779 39.736 20.725 19.771 38.598 26.329 44.098 29.317 5.515 3.004 8.806 2.67 12.226-.929 3.404-3.599 14.639-15.746 18.596-21.169 3.955-5.438 7.661-4.373 12.742-2.329 5.078 2.052 32.157 16.556 37.673 19.551 5.51 2.989 9.193 4.529 10.51 6.9 1.317 2.38.901 13.531-4.271 26.359z" fill="currentColor" stroke="none"></path></g></symbol><symbol id="icon-behance" viewBox="0 0 56.69 56.69"><title>Behance</title><g class="nc-icon-wrapper"><path d="M23.641 26.71s4.615-.344 4.615-5.756c0-5.413-3.774-8.054-8.56-8.054H3.958v30.248h15.739s9.61.305 9.61-8.926c0 .001.42-7.512-5.666-7.512zm-12.749-8.433h8.805s2.141 0 2.141 3.146-1.26 3.604-2.686 3.604h-8.26v-6.75zm8.36 19.495h-8.36V29.69h8.805s3.189-.042 3.189 4.152c0 3.54-2.381 3.902-3.634 3.93zM42.12 20.596c-11.631 0-11.62 11.622-11.62 11.622s-.798 11.563 11.622 11.563c0 0 10.351.59 10.351-8.044H47.15s.176 3.252-4.85 3.252c0 0-5.326.356-5.326-5.263H52.65c0 .001 1.714-13.13-10.53-13.13zm-5.203 9.094s.65-4.664 5.322-4.664c4.673 0 4.614 4.664 4.614 4.664h-9.936zm11.176-11.282H35.614v-3.726h12.479v3.726z" fill="currentColor" stroke="none"></path></g></symbol><symbol id="icon-github" viewBox="0 0 512 512"><title>Github</title><g class="nc-icon-wrapper"><path d="M256 32C132.3 32 32 134.9 32 261.7c0 101.5 64.2 187.5 153.2 217.9 1.4.3 2.6.4 3.8.4 8.3 0 11.5-6.1 11.5-11.4 0-5.5-.2-19.9-.3-39.1-8.4 1.9-15.9 2.7-22.6 2.7-43.1 0-52.9-33.5-52.9-33.5-10.2-26.5-24.9-33.6-24.9-33.6-19.5-13.7-.1-14.1 1.4-14.1h.1c22.5 2 34.3 23.8 34.3 23.8 11.2 19.6 26.2 25.1 39.6 25.1 10.5 0 20-3.4 25.6-6 2-14.8 7.8-24.9 14.2-30.7-49.7-5.8-102-25.5-102-113.5 0-25.1 8.7-45.6 23-61.6-2.3-5.8-10-29.2 2.2-60.8 0 0 1.6-.5 5-.5 8.1 0 26.4 3.1 56.6 24.1 17.9-5.1 37-7.6 56.1-7.7 19 .1 38.2 2.6 56.1 7.7 30.2-21 48.5-24.1 56.6-24.1 3.4 0 5 .5 5 .5 12.2 31.6 4.5 55 2.2 60.8 14.3 16.1 23 36.6 23 61.6 0 88.2-52.4 107.6-102.3 113.3 8 7.1 15.2 21.1 15.2 42.5 0 30.7-.3 55.5-.3 63 0 5.4 3.1 11.5 11.4 11.5 1.2 0 2.6-.1 4-.4C415.9 449.2 480 363.1 480 261.7 480 134.9 379.7 32 256 32z" fill="currentColor" stroke="none"></path></g></symbol><symbol id="icon-linkedin" viewBox="0 0 56.69 56.69"><title>LinkedIn</title><g class="nc-icon-wrapper"><path d="M7.592 21.154h8.902v28.6H7.592v-28.6zm4.453-14.217a5.158 5.158 0 0 1 5.156 5.152 5.158 5.158 0 0 1-10.316 0 5.154 5.154 0 0 1 5.16-5.152m10.032 42.817h8.882V35.605c0-3.73.707-7.342 5.334-7.342 4.559 0 4.625 4.268 4.625 7.584v13.906h8.887V34.068c0-7.704-1.664-13.625-10.666-13.625-4.324 0-7.23 2.369-8.416 4.619h-.121v-3.908h-8.525v28.6z" fill="currentColor" stroke="none"></path></g></symbol><symbol id="icon-twitter" viewBox="0 0 512 512"><title>Twitter</title><g class="nc-icon-wrapper"><path d="M492 109.5c-17.4 7.7-36 12.9-55.6 15.3 20-12 35.4-31 42.6-53.6-18.7 11.1-39.4 19.2-61.5 23.5C399.8 75.8 374.6 64 346.8 64c-53.5 0-96.8 43.4-96.8 96.9 0 7.6.8 15 2.5 22.1-80.5-4-151.9-42.6-199.6-101.3-8.3 14.3-13.1 31-13.1 48.7 0 33.6 17.2 63.3 43.2 80.7-16-.4-31-4.8-44-12.1v1.2c0 47 33.4 86.1 77.7 95-8.1 2.2-16.7 3.4-25.5 3.4-6.2 0-12.3-.6-18.2-1.8 12.3 38.5 48.1 66.5 90.5 67.3-33.1 26-74.9 41.5-120.3 41.5-7.8 0-15.5-.5-23.1-1.4C62.8 432 113.7 448 168.3 448 346.6 448 444 300.3 444 172.2c0-4.2-.1-8.4-.3-12.5C462.6 146 479 129 492 109.5z" fill="currentColor" stroke="none"></path></g></symbol><symbol id="icon-arrow-right-5" viewBox="0 0 16 16"><title>arrow right 5</title><g class="nc-icon-wrapper"><path fill-rule="evenodd" d="M9.21 4.387l.083-.094a1 1 0 0 1 1.32-.083l.094.083 3 3 .042.044.055.068.071.11.054.114.035.105.03.148L14 8l-.003.075-.017.126-.03.111-.044.111-.052.098-.074.104-.073.082-3 3a1 1 0 0 1-1.497-1.32l.083-.094L10.585 9H3a1 1 0 1 1 0-2h7.585L9.293 5.707a1 1 0 0 1-.083-1.32l.083-.094-.083.094z" fill="currentColor" stroke="none"></path></g></symbol><symbol id="icon-arrow-right-4" viewBox="0 0 24 24"><title>arrow right 4</title><g class="nc-icon-wrapper"><path d="M13.267 4.209a.75.75 0 0 0-1.034 1.086l6.251 5.955H3.75a.75.75 0 0 0 0 1.5h14.734l-6.251 5.954a.75.75 0 0 0 1.034 1.087l7.42-7.067a.996.996 0 0 0 .3-.58.758.758 0 0 0-.001-.29.995.995 0 0 0-.3-.578l-7.419-7.067z" fill="currentColor" stroke="none"></path></g></symbol><symbol id="icon-arrow-right-1" viewBox="0 0 24 24"><title>arrow right 1</title>
    <g class="nc-icon-wrapper">
        <path d="M8.59 16.34l4.58-4.59-4.58-4.59L10 5.75l6 6-6 6z" fill="currentColor" stroke="none"></path>
    </g>
</symbol><symbol id="icon-arrow-right-2" viewBox="0 0 8 12"><title>arrow right 2</title><g class="nc-icon-wrapper"><g id="Icons" stroke="none" fill="none" fill-rule="evenodd"><g id="Outlined" transform="translate(-550 -2464)" fill="currentColor" stroke="none"><g id="Hardware" transform="translate(100 2404)" fill="currentColor" stroke="none"><g id="Outlined-/-Hardware-/-keyboard_arrow_right" transform="translate(442 54)" fill="currentColor" stroke="none"><path id="Path" d="M0 0h24v24H0z" fill="currentColor" stroke="none"></path><path id="🔹-Icon-Color" fill="currentColor" d="M8.59 16.59L13.17 12 8.59 7.41 10 6l6 6-6 6z" stroke="none"></path></g></g></g></g></g></symbol><symbol id="icon-arrow-right-3" viewBox="0 0 7 12"><title>arrow right 3</title><g class="nc-icon-wrapper"><g id="Icons" stroke="none" fill="none" fill-rule="evenodd"><g id="Rounded" transform="translate(-687 -2464)" fill="currentColor" stroke="none"><g id="Hardware" transform="translate(100 2404)" fill="currentColor" stroke="none"><g id="-Round-/-Hardware-/-keyboard_arrow_right" transform="translate(578 54)" fill="currentColor" stroke="none"><path id="Rectangle-Copy-105" d="M0 0h24v24H0z" fill="currentColor" stroke="none"></path><path d="M9.29 15.88L13.17 12 9.29 8.12a.996.996 0 1 1 1.41-1.41l4.59 4.59c.39.39.39 1.02 0 1.41L10.7 17.3a.996.996 0 0 1-1.41 0c-.38-.39-.39-1.03 0-1.42z" id="🔹-Icon-Color" fill="currentColor" stroke="none"></path></g></g></g></g></g></symbol></svg>